<svg xmlns="http://www.w3.org/2000/svg" width="1200" height="760" viewBox="0 0 1200 760" role="img" aria-labelledby="title desc"><title id="title">Solar System Architecture</title><desc id="desc">Solar architecture from multi ingress interface to requirement compiler, harness control plane, model fleet, evidence and meta harness.</desc><defs><linearGradient id="bg" x1="0" x2="1" y1="0" y2="1"><stop offset="0" stop-color="#08111f"/><stop offset="1" stop-color="#111827"/></linearGradient><linearGradient id="a" x1="0" x2="1"><stop offset="0" stop-color="#38bdf8"/><stop offset="1" stop-color="#8b5cf6"/></linearGradient><style>.bg{fill:url(#bg)}.panel{fill:#0f172a;stroke:#334155;stroke-width:1.3}.core{fill:#111c34;stroke:url(#a);stroke-width:2}.txt{font-family:-apple-system,BlinkMacSystemFont,'Segoe UI',sans-serif;fill:#e5e7eb}.muted{fill:#94a3b8}.h{font-size:24px;font-weight:700}.s{font-size:14px}.m{font-size:16px;font-weight:650}.line{stroke:#64748b;stroke-width:1.4;fill:none;marker-end:url(#arrow)}.chip{fill:#172554;stroke:#2563eb;stroke-width:1}</style><marker id="arrow" markerWidth="10" markerHeight="10" refX="9" refY="3" orient="auto"><path d="M0,0 L10,3 L0,6 Z" fill="#64748b"/></marker></defs><rect class="bg" width="1200" height="760" rx="28"/><text class="txt h" x="50" y="58">Solar: AI-Native Execution Fabric</text><text class="muted s" x="50" y="86">Natural language → requirement compiler → operator DAG → model fleet → evidence gates → self-optimization</text><g transform="translate(50,125)"><rect class="panel" width="230" height="120" rx="18"/><text class="txt m" x="20" y="34">Multi-Ingress Interface</text><text class="muted s" x="20" y="62">Codex · Antigravity · TUI</text><text class="muted s" x="20" y="84">Reasonix · CLI · Web</text></g><g transform="translate(340,125)"><rect class="core" width="230" height="120" rx="18"/><text class="txt m" x="20" y="34">Requirement Compiler</text><text class="muted s" x="20" y="62">Contract · PRD · Traceability</text><text class="muted s" x="20" y="84">TaskGraph IR · Dispatch</text></g><g transform="translate(630,125)"><rect class="panel" width="230" height="120" rx="18"/><text class="txt m" x="20" y="34">Harness Control Plane</text><text class="muted s" x="20" y="62">Scheduler · Queue · Lease</text><text class="muted s" x="20" y="84">Autopilot · Evaluator</text></g><g transform="translate(920,125)"><rect class="panel" width="230" height="120" rx="18"/><text class="txt m" x="20" y="34">Evidence Runtime</text><text class="muted s" x="20" y="62">Handoff · Eval · Session Log</text><text class="muted s" x="20" y="84">Node Verdict · Parent Gate</text></g><path class="line" d="M280 185 H340"/><path class="line" d="M570 185 H630"/><path class="line" d="M860 185 H920"/><g transform="translate(115,340)"><rect class="panel" width="300" height="150" rx="18"/><text class="txt m" x="24" y="36">Solar Core</text><text class="muted s" x="24" y="66">Agents · Skills · Rules · Hooks</text><text class="muted s" x="24" y="90">Claude/Codex-native workflow kernel</text><rect class="chip" x="24" y="110" width="92" height="24" rx="12"/><text class="txt s" x="40" y="127">L1 Core</text></g><g transform="translate(450,315)"><rect class="core" width="300" height="200" rx="22"/><text class="txt m" x="24" y="36">Solar Harness</text><text class="muted s" x="24" y="66">Agentic DAG runtime</text><text class="muted s" x="24" y="90">Physical/logical operator binding</text><text class="muted s" x="24" y="114">Capability injection</text><text class="muted s" x="24" y="138">Model fleet scheduling</text><rect class="chip" x="24" y="160" width="136" height="24" rx="12"/><text class="txt s" x="40" y="177">L2 Control Plane</text></g><g transform="translate(785,340)"><rect class="panel" width="300" height="150" rx="18"/><text class="txt m" x="24" y="36">Solar Knowledge</text><text class="muted s" x="24" y="66">QMD · Obsidian · Mirage · MinerU</text><text class="muted s" x="24" y="90">Accepted artifacts · Context maps</text><rect class="chip" x="24" y="110" width="140" height="24" rx="12"/><text class="txt s" x="40" y="127">Knowledge Layer</text></g><path class="line" d="M570 245 V315"/><path class="line" d="M450 415 H415"/><path class="line" d="M750 415 H785"/><g transform="translate(160,600)"><rect class="panel" width="220" height="80" rx="16"/><text class="txt m" x="18" y="32">Model Fleet</text><text class="muted s" x="18" y="56">Claude · Codex · Gemini · DeepSeek · GLM</text></g><g transform="translate(490,600)"><rect class="panel" width="220" height="80" rx="16"/><text class="txt m" x="18" y="32">Deep Research OS</text><text class="muted s" x="18" y="56">Evidence · Claims · Citations · Gate</text></g><g transform="translate(820,600)"><rect class="panel" width="220" height="80" rx="16"/><text class="txt m" x="18" y="32">Meta Harness</text><text class="muted s" x="18" y="56">Replay · SideInfo · Pareto · Promote</text></g><path class="line" d="M560 515 C540 560 420 585 380 620"/><path class="line" d="M600 515 V600"/><path class="line" d="M690 515 C720 560 805 585 820 620"/></svg>